<?xml version="1.0" encoding="utf-8"?>
<!-- Generator: Adobe Illustrator 21.0.0, SVG Export Plug-In . SVG Version: 6.00 Build 0)  -->
<svg version="1.1" id="Layer_1" xmlns="http://www.w3.org/2000/svg" xmlns:xlink="http://www.w3.org/1999/xlink" x="0px" y="0px"
	 viewBox="0 0 657.2 303.4" style="enable-background:new 0 0 657.2 303.4;" xml:space="preserve">
<style type="text/css">
	.st0{fill:#212124;}
</style>
<g>
	<g>
		<path class="st0" d="M656.3,179.9c0,0-6.5-9.1-8.5-11.7c-1.4-1.7-3.1-3.7-7.5-0.7c-9.9,6.6-21,12.7-34.7,12.7
			c-10.5,0-19.6-2.7-26.4-8.5c2.9-1.3,5.9-2.7,8.9-4.4c16.2-8.7,29.7-19.9,36.2-26.4c31.5-31.5,21.7-78.5-16.8-78.5
			c-36.3,0-64.9,35.3-64.9,74.6c0,5.9,0.7,14.4,3.2,23.3c-2.1,1-16.5,8-33.7,17.5c-16.2-12.1-41.4-6.7-41.4-6.7l0,0
			c23.4-33.3,58.7-85.2,61.7-89.5c2.2-3.1,1.8-6.1-0.3-10.9c-2.7-5.8-5.4-6.8-9-6.8h-73.3c-2.4,0-4.3,1.1-5,3.8
			c-0.7,2.7-2.2,12-2.5,15.1C442,86,445,88,448.1,88h53.1l-48,68.7c-0.3,0.3-0.6,0.6-0.9,1c-7,10.1-17.7,24.2-30.5,24.2
			c-8,0-17.9-5.7-17.9-24.4c0-18.3,7.4-57,12.8-87.2c0.6-3.2-0.5-6.4-5.7-6.4h-13c-3,0-4.7,1.8-5.1,4.4c-0.8,4.6-1.6,9.1-2.3,13.5
			c-6.4-12.3-16.7-19.3-31.5-19.3c-13.8,0-27.2,5.1-38.2,16.1c-27.4,27.4-22.2,72.1-45.9,95.8c-10.2,10.2-21.7,7.1-21.7-13
			c0-22.9,8.8-48.5,18.8-72.7c1.8-4.3-0.1-7.9-2-10.6c-2.7-3.9-3.7-5.9-8.5-5.9c-7.5,0-19.4,4.7-43.3,4.7c-5.1,0-9.9-0.2-14.3-0.5
			c0.3-3.6,0.3-6,0.4-6.9c0.2-3.4-1-5.5-4.6-5.5h-12.2c-4.4,0-5.5,2.1-6,5.6c-2.1,14.6-6,68.3-33,95.2c-3.1,3.1-5,4.1-5,4.1
			c6.7-13.1,10.3-30.3,10.3-44c0-38.4-22.7-62.2-51.3-62.2c-8.7,0-17.9,2.8-26.6,8.2c4-23.4,7.7-45.3,9-52.7
			c1.1-6.3-1.1-9.5-2.8-12.1C79.5,1.9,77.1,0,73.5,0H31.3c-2.4,0-4.2,1.7-4.8,4.4c-0.7,3.1-2.2,11.3-2.4,15.1
			c-0.2,3.3,2.1,4.6,4.8,4.6h30.8c-4.9,30.2-14.3,88.7-17.1,103.4c-3.6,18.7-16.9,41.6-39.3,49.8c-2.8,1-3.9,3.6-2.9,6.6
			s4.9,10.8,6.1,12.8c1.2,2.1,3.8,3.4,6.2,2.6c11.6-4.1,22.3-10.7,30.7-19.1c2.1-2.1,4.1-4.4,6-6.9c10,22.6,30.6,30.8,51.5,30.8
			c23.7,0,49.3-8.3,67.3-26.2c21-21,29.7-55.6,33.5-80.2c5.2,0.7,11.1,1.3,16.8,1.3c14.4,0,26.5-3.1,26.5-3.1s-14.5,38.6-14.5,67
			c0,32.1,15.4,41.2,32.3,41.2c17.5,0,29.8-13.1,38.5-29.4c2.3,5.1,5.7,11.1,10.3,15.7c7.9,7.9,17.7,13.7,31.9,13.7
			c16.2,0,30.1-9.3,40-23.7c1.8,6.1,4.5,11.1,8.2,14.8c5,5,14.2,8.9,25.6,8.9c19.7,0,31.2-14.8,61.9-14.8c3.9,0,7.4,0.6,10.6,1.7
			c-14.1,8.6-27.5,17.8-35.7,26c-25.3,25.3-26.5,58.7-9.9,75.3c20.2,20.2,48.8,10,66.8-7.9c21-21,27.1-60.7,15-87.8
			c14.7-7.7,27-13.4,29.9-14.8c9.2,12.5,24.4,22.3,49.4,22.3c17.9,0,36-6.3,50.1-17C657.4,185.2,657.9,182.1,656.3,179.9z
			 M113.2,171.3c-5.7,5.7-12.7,8.8-19.8,8.8c-6.6,0-12.3-3-17.1-7.8c-16.2-16.2-14.8-56.1,6.1-77c5.9-5.9,13.1-9.3,20.4-9.3
			c6.6,0,12.3,2.9,17.1,7.7C135.1,109,136,148.5,113.2,171.3z M344.9,180c-17.5,0-28.9-21.1-25.4-47.1s20.5-47.1,38-47.1
			c16.2,0,27.2,18.1,26,41.4c-0.5,3.4-0.9,6.6-1.2,9.8C377.6,161.1,361.5,180,344.9,180z M490.6,271.6c-22.9,22.9-52.1-6.3-18-40.4
			c7.7-7.7,20.4-16.2,33.6-24C513.7,225.8,507.8,254.4,490.6,271.6z M582.5,95.8c17.2-17.2,36.3-12.1,36.3,4.6
			c0,16.3-19.5,33.9-43.1,47.5c-2.3,1.3-5,2.8-7.7,4.2c-0.9-4.1-1.4-8.6-1.4-13.7C566.5,124.4,572.4,105.9,582.5,95.8z"/>
	</g>
	<g>
		<path class="st0" d="M25.4,253.2v5.3h8.7v4.5h-8.7v10.3h-5.1v-24.6h15.8v4.5L25.4,253.2L25.4,253.2z"/>
		<path class="st0" d="M68.7,261c0,7.7-5.4,12.7-12.8,12.7c-7.4,0-12.8-4.9-12.8-12.7c0-7.7,5.4-12.7,12.8-12.7
			C63.2,248.3,68.7,253.3,68.7,261z M48.3,261c0,5.1,3.1,8.2,7.6,8.2c4.4,0,7.6-3.1,7.6-8.2s-3.1-8.2-7.6-8.2
			C51.4,252.8,48.3,255.9,48.3,261z"/>
		<path class="st0" d="M86.2,264.4h-4.1v8.9H77v-24.6h10.5c4.7,0,7.9,2.8,7.9,7.9c0,3.4-1.5,5.9-3.9,7l5.2,9.7H91L86.2,264.4z
			 M86.9,259.9c2,0,3.4-1.2,3.4-3.4c0-2.2-1.4-3.4-3.4-3.4h-4.8v6.8H86.9z"/>
		<path class="st0" d="M126.5,273.3V260l-6.8,13h-3.4l-6.8-13v13.3h-5v-24.6h4.5l9.1,16.9l9-16.9h4.5v24.6H126.5z"/>
		<path class="st0" d="M145.9,253.2v5.3h9.3v4.4h-9.3v5.9h10.7v4.5h-15.8v-24.6h15.8v4.5L145.9,253.2L145.9,253.2z"/>
		<path class="st0" d="M174,264.4h-4.1v8.9h-5.1v-24.6h10.5c4.7,0,7.9,2.8,7.9,7.9c0,3.4-1.5,5.9-3.9,7l5.2,9.7h-5.7L174,264.4z
			 M174.7,259.9c2,0,3.4-1.2,3.4-3.4c0-2.2-1.4-3.4-3.4-3.4h-4.8v6.8H174.7z"/>
		<path class="st0" d="M208.2,268.8v4.5h-15.8v-24.6h5.1v20.1H208.2z"/>
		<path class="st0" d="M222.6,273.3h-5.1v-9.5l-9.3-15.1h5.9l6,10.1l6-10.1h5.9l-9.3,15.1v9.5H222.6z"/>
		<path class="st0" d="M265.7,273.3l-2-4.7h-10.2l-2,4.7h-5.6l10.6-24.6h4.3l10.6,24.6H265.7z M261.9,264.4l-3.3-7.9l-3.3,7.9H261.9
			z"/>
		<path class="st0" d="M289,248.7c4.7,0,7.9,2.9,7.9,7.9c0,5.1-3.3,7.9-7.9,7.9h-5.6v8.7h-5.1v-24.6H289V248.7z M283.4,260h4.9
			c2,0,3.4-1.2,3.4-3.4c0-2.2-1.4-3.5-3.4-3.5h-4.9V260z"/>
		<path class="st0" d="M315.1,248.7c4.7,0,7.9,2.9,7.9,7.9c0,5.1-3.3,7.9-7.9,7.9h-5.6v8.7h-5v-24.6h10.6V248.7z M309.6,260h4.9
			c2,0,3.4-1.2,3.4-3.4c0-2.2-1.4-3.5-3.4-3.5h-4.9V260z"/>
		<path class="st0" d="M341,248.7c4.4,0,7.7,2.2,7.7,6.8c0,2.3-1,3.9-2.4,4.8c1.9,0.7,3.4,2.7,3.4,5.8c0,4.7-3.3,7.2-8,7.2h-11
			v-24.6L341,248.7L341,248.7z M335.7,258.6h4.9c1.7,0,2.8-0.8,2.8-2.7s-1.3-2.7-3.1-2.7h-4.6L335.7,258.6L335.7,258.6z
			 M335.7,268.8h5.4c2,0,3.4-0.9,3.4-2.9c0-2.1-1.4-3-3.3-3h-5.4v5.9H335.7z"/>
		<path class="st0" d="M382.9,261c0,7.7-5.4,12.7-12.8,12.7s-12.8-4.9-12.8-12.7c0-7.7,5.4-12.7,12.8-12.7
			C377.4,248.3,382.9,253.3,382.9,261z M362.5,261c0,5.1,3.1,8.2,7.6,8.2c4.4,0,7.6-3.1,7.6-8.2s-3.1-8.2-7.6-8.2
			S362.5,255.9,362.5,261z"/>
		<path class="st0" d="M401.9,273.3h-5.1v-9.5l-9.3-15.1h5.9l6,10.1l6-10.1h5.9l-9.3,15.1v9.5H401.9z"/>
	</g>
</g>
</svg>
